<svg xmlns="http://www.w3.org/2000/svg" width="1442.588" height="177.1" viewBox="0 0 1442.588 177.1">
  <g id="login-art" transform="translate(1.348 1.072)" opacity="0.141">
    <path id="Path_3" data-name="Path 3" d="M0,137,183.989,41.39,381.175,0,540,119.391,721,9.725l179,67.2,180,48.4,180-41.98,180,.772" fill="none" stroke="#116294" stroke-linecap="round" stroke-miterlimit="10" stroke-width="2"/>
    <path id="Path_3-2" data-name="Path 3" d="M0,57.512,180,69.783,360,57.512,540,102,720,73.993,900,0l180,42.548,180,20.888,180-20.888" transform="translate(0 36)" fill="none" stroke="#1fbeea" stroke-linecap="round" stroke-miterlimit="10" stroke-width="2"/>
    <path id="Path_3_Copy" data-name="Path 3 Copy" d="M0,111.715,179.875,135,359.75,99.253,539.625,13.059,719.5,52.48,899.375,0,1079.25,13.059l179.875,45.989L1440,30.624" transform="translate(0 19)" fill="none" stroke="#116294" stroke-linecap="round" stroke-miterlimit="10" stroke-width="2"/>
    <path id="Path_3_Copy_2" data-name="Path 3 Copy 2" d="M0,113.127,178.876,78.381,358.751,118,538.626,70.562,719.5,34.459,898.376,49.065,1078.251,0l179.875,60.541L1439,113.127" transform="translate(1 57)" fill="none" stroke="#1a3557" stroke-linecap="round" stroke-miterlimit="10" stroke-width="2"/>
  </g>
</svg>
